<svg xmlns="http://www.w3.org/2000/svg" width="198" height="81" viewBox="0 0 198 81" version="1.1"><path d="M 34.132 6.041 C 8.431 11.309, -1.250 42.515, 17.118 60.882 C 29.767 73.532, 50.415 73.585, 63 61 C 67.814 56.186, 70.424 51.195, 71.888 44 C 73.080 38.142, 72.148 29.013, 69.935 24.878 L 68.750 22.664 67.479 25.040 C 66.628 26.629, 66.504 28.195, 67.104 29.773 C 68.722 34.029, 68.099 44.185, 65.923 49 C 57.752 67.090, 34.746 71.764, 20.665 58.195 C 14.229 51.993, 12.524 47.764, 12.524 38 C 12.524 31.203, 12.956 28.698, 14.677 25.500 C 22.264 11.406, 38.699 6.011, 52.713 13.015 C 57.141 15.227, 59.336 15.811, 60.960 15.211 C 63.077 14.427, 63.006 14.276, 59.336 11.737 C 51.998 6.658, 42.067 4.414, 34.132 6.041 M 30.750 21.140 L 19 29.041 19 40.136 L 19 51.230 21.750 49.441 C 23.262 48.457, 28.924 44.712, 34.332 41.119 L 44.164 34.586 43.463 24.043 C 43.078 18.244, 42.703 13.441, 42.631 13.370 C 42.559 13.298, 37.213 16.795, 30.750 21.140 M 60.159 17.496 C 55.571 18.790, 51.619 20.047, 51.377 20.290 C 51.134 20.532, 52.348 21.316, 54.074 22.031 C 56.297 22.952, 57.773 24.637, 59.132 27.807 C 60.187 30.269, 61.212 32.107, 61.409 31.892 C 62.621 30.568, 69.883 15.013, 69.261 15.071 C 68.843 15.111, 64.747 16.202, 60.159 17.496 M 30.535 22.893 L 20.571 29.670 20.875 38.585 C 21.043 43.488, 21.271 47.594, 21.381 47.708 C 21.492 47.822, 26.167 44.897, 31.771 41.208 L 41.959 34.500 41.979 25.250 C 41.991 20.163, 41.663 16.026, 41.250 16.058 C 40.837 16.089, 36.016 19.165, 30.535 22.893 M 165.192 22.075 C 165.389 22.666, 165.978 23.150, 166.500 23.150 C 167.022 23.150, 167.611 22.666, 167.808 22.075 C 168.005 21.484, 167.417 21, 166.500 21 C 165.583 21, 164.995 21.484, 165.192 22.075 M 81 34.500 C 81 42.167, 81.387 47, 82 47 C 82.613 47, 83 42.167, 83 34.500 C 83 26.833, 82.613 22, 82 22 C 81.387 22, 81 26.833, 81 34.500 M 36.250 26.662 C 35.563 26.940, 35 28.045, 35 29.119 C 35 30.760, 35.318 30.900, 37 30 C 38.100 29.411, 39 28.270, 39 27.465 C 39 25.958, 38.418 25.788, 36.250 26.662 M 90 37.500 C 90 43.167, 90.404 47, 91 47 C 91.589 47, 92 43.483, 92 38.448 L 92 29.895 97.250 30.198 L 102.500 30.500 102.790 38.750 C 103.175 49.685, 105 49.433, 105 38.445 L 105 29.890 109.750 30.195 L 114.500 30.500 114.790 38.750 C 115.026 45.446, 115.376 47, 116.646 47 C 117.964 47, 118.155 45.759, 117.855 39.153 C 117.350 28.015, 117.329 28, 102.378 28 L 90 28 90 37.500 M 125 29 C 125 29.550, 127.009 30, 129.465 30 C 132.962 30, 134.171 30.450, 135.042 32.078 C 136.922 35.592, 135.546 37, 130.231 37 C 124.777 37, 123 38.229, 123 42 C 123 45.974, 124.785 47, 131.700 47 L 138 47 138 39.723 C 138 30.009, 136.619 28, 129.943 28 C 127.224 28, 125 28.450, 125 29 M 145.750 29.080 C 144.335 29.904, 144 31.503, 144 37.427 C 144 42.147, 144.454 45.132, 145.275 45.814 C 145.977 46.396, 148.789 47.013, 151.525 47.186 C 156.081 47.474, 156.500 47.710, 156.500 50 C 156.500 52.342, 156.137 52.519, 150.750 52.800 C 147.588 52.965, 145 53.527, 145 54.050 C 145 55.436, 156.386 55.214, 157.800 53.800 C 158.603 52.997, 159 48.533, 159 40.300 L 159 28 153.250 28.030 C 150.088 28.047, 146.713 28.519, 145.750 29.080 M 166 37.500 C 166 43.167, 166.404 47, 167 47 C 167.596 47, 168 43.167, 168 37.500 C 168 31.833, 167.596 28, 167 28 C 166.404 28, 166 31.833, 166 37.500 M 174 37.500 C 174 43.167, 174.404 47, 175 47 C 175.588 47, 176 43.500, 176 38.500 L 176 30 180.800 30 C 183.440 30, 186.140 30.540, 186.800 31.200 C 187.514 31.914, 188 35.356, 188 39.700 C 188 43.900, 188.425 47, 189 47 C 189.582 47, 190 43.718, 190 39.155 C 190 29.208, 188.936 28, 180.171 28 L 174 28 174 37.500 M 26.250 30.674 C 24.801 31.685, 24 33.269, 24 35.122 C 24 38.553, 24.324 38.617, 28.096 35.932 C 29.938 34.620, 31 32.975, 31 31.432 C 31 28.653, 29.492 28.413, 26.250 30.674 M 146.667 30.667 C 145.501 31.832, 145.943 43.543, 147.200 44.800 C 147.860 45.460, 150.335 46, 152.700 46 L 157 46 157 38 L 157 30 152.167 30 C 149.508 30, 147.033 30.300, 146.667 30.667 M 32.641 33.266 C 31.619 34.017, 30.944 35.360, 31.141 36.249 C 31.450 37.639, 31.757 37.676, 33.338 36.508 C 34.349 35.762, 35.024 34.419, 34.838 33.525 C 34.546 32.122, 34.246 32.087, 32.641 33.266 M 32.290 44.758 C 26.124 48.968, 21.284 52.617, 21.534 52.867 C 22.305 53.638, 39.177 61, 40.173 61 C 41.937 61, 63.965 45.565, 63.231 44.843 C 62.132 43.762, 45.998 36.992, 44.661 37.052 C 44.023 37.080, 38.455 40.548, 32.290 44.758 M 126.246 39.154 C 122.895 42.505, 125.979 46.284, 131.680 45.815 C 135.319 45.515, 135.500 45.334, 135.500 42 C 135.500 38.632, 135.349 38.489, 131.496 38.204 C 129.247 38.039, 126.945 38.455, 126.246 39.154" stroke="none" fill="#eeb96e" fill-rule="evenodd"/><path d="M 0 40.505 L 0 81.010 99.250 80.755 L 198.500 80.500 198.761 40.250 L 199.023 0 99.511 0 L 0 0 0 40.505 M 0.456 41 C 0.456 63.275, 0.588 72.388, 0.749 61.250 C 0.910 50.113, 0.910 31.888, 0.749 20.750 C 0.588 9.613, 0.456 18.725, 0.456 41 M 34.132 6.041 C 8.431 11.309, -1.250 42.515, 17.118 60.882 C 29.767 73.532, 50.415 73.585, 63 61 C 67.814 56.186, 70.424 51.195, 71.888 44 C 73.080 38.142, 72.148 29.013, 69.935 24.878 L 68.750 22.664 67.479 25.040 C 66.628 26.629, 66.504 28.195, 67.104 29.773 C 68.722 34.029, 68.099 44.185, 65.923 49 C 57.752 67.090, 34.746 71.764, 20.665 58.195 C 14.229 51.993, 12.524 47.764, 12.524 38 C 12.524 31.203, 12.956 28.698, 14.677 25.500 C 22.264 11.406, 38.699 6.011, 52.713 13.015 C 57.141 15.227, 59.336 15.811, 60.960 15.211 C 63.077 14.427, 63.006 14.276, 59.336 11.737 C 51.998 6.658, 42.067 4.414, 34.132 6.041 M 30.750 21.140 L 19 29.041 19 40.136 L 19 51.230 21.750 49.441 C 23.262 48.457, 28.924 44.712, 34.332 41.119 L 44.164 34.586 43.463 24.043 C 43.078 18.244, 42.703 13.441, 42.631 13.370 C 42.559 13.298, 37.213 16.795, 30.750 21.140 M 60.159 17.496 C 55.571 18.790, 51.619 20.047, 51.377 20.290 C 51.134 20.532, 52.348 21.316, 54.074 22.031 C 56.297 22.952, 57.773 24.637, 59.132 27.807 C 60.187 30.269, 61.212 32.107, 61.409 31.892 C 62.621 30.568, 69.883 15.013, 69.261 15.071 C 68.843 15.111, 64.747 16.202, 60.159 17.496 M 30.535 22.893 L 20.571 29.670 20.875 38.585 C 21.043 43.488, 21.271 47.594, 21.381 47.708 C 21.492 47.822, 26.167 44.897, 31.771 41.208 L 41.959 34.500 41.979 25.250 C 41.991 20.163, 41.663 16.026, 41.250 16.058 C 40.837 16.089, 36.016 19.165, 30.535 22.893 M 165.192 22.075 C 165.389 22.666, 165.978 23.150, 166.500 23.150 C 167.022 23.150, 167.611 22.666, 167.808 22.075 C 168.005 21.484, 167.417 21, 166.500 21 C 165.583 21, 164.995 21.484, 165.192 22.075 M 81 34.500 C 81 42.167, 81.387 47, 82 47 C 82.613 47, 83 42.167, 83 34.500 C 83 26.833, 82.613 22, 82 22 C 81.387 22, 81 26.833, 81 34.500 M 36.250 26.662 C 35.563 26.940, 35 28.045, 35 29.119 C 35 30.760, 35.318 30.900, 37 30 C 38.100 29.411, 39 28.270, 39 27.465 C 39 25.958, 38.418 25.788, 36.250 26.662 M 90 37.500 C 90 43.167, 90.404 47, 91 47 C 91.589 47, 92 43.483, 92 38.448 L 92 29.895 97.250 30.198 L 102.500 30.500 102.790 38.750 C 103.175 49.685, 105 49.433, 105 38.445 L 105 29.890 109.750 30.195 L 114.500 30.500 114.790 38.750 C 115.026 45.446, 115.376 47, 116.646 47 C 117.964 47, 118.155 45.759, 117.855 39.153 C 117.350 28.015, 117.329 28, 102.378 28 L 90 28 90 37.500 M 125 29 C 125 29.550, 127.009 30, 129.465 30 C 132.962 30, 134.171 30.450, 135.042 32.078 C 136.922 35.592, 135.546 37, 130.231 37 C 124.777 37, 123 38.229, 123 42 C 123 45.974, 124.785 47, 131.700 47 L 138 47 138 39.723 C 138 30.009, 136.619 28, 129.943 28 C 127.224 28, 125 28.450, 125 29 M 145.750 29.080 C 144.335 29.904, 144 31.503, 144 37.427 C 144 42.147, 144.454 45.132, 145.275 45.814 C 145.977 46.396, 148.789 47.013, 151.525 47.186 C 156.081 47.474, 156.500 47.710, 156.500 50 C 156.500 52.342, 156.137 52.519, 150.750 52.800 C 147.588 52.965, 145 53.527, 145 54.050 C 145 55.436, 156.386 55.214, 157.800 53.800 C 158.603 52.997, 159 48.533, 159 40.300 L 159 28 153.250 28.030 C 150.088 28.047, 146.713 28.519, 145.750 29.080 M 166 37.500 C 166 43.167, 166.404 47, 167 47 C 167.596 47, 168 43.167, 168 37.500 C 168 31.833, 167.596 28, 167 28 C 166.404 28, 166 31.833, 166 37.500 M 174 37.500 C 174 43.167, 174.404 47, 175 47 C 175.588 47, 176 43.500, 176 38.500 L 176 30 180.800 30 C 183.440 30, 186.140 30.540, 186.800 31.200 C 187.514 31.914, 188 35.356, 188 39.700 C 188 43.900, 188.425 47, 189 47 C 189.582 47, 190 43.718, 190 39.155 C 190 29.208, 188.936 28, 180.171 28 L 174 28 174 37.500 M 26.250 30.674 C 24.801 31.685, 24 33.269, 24 35.122 C 24 38.553, 24.324 38.617, 28.096 35.932 C 29.938 34.620, 31 32.975, 31 31.432 C 31 28.653, 29.492 28.413, 26.250 30.674 M 146.667 30.667 C 145.501 31.832, 145.943 43.543, 147.200 44.800 C 147.860 45.460, 150.335 46, 152.700 46 L 157 46 157 38 L 157 30 152.167 30 C 149.508 30, 147.033 30.300, 146.667 30.667 M 32.641 33.266 C 31.619 34.017, 30.944 35.360, 31.141 36.249 C 31.450 37.639, 31.757 37.676, 33.338 36.508 C 34.349 35.762, 35.024 34.419, 34.838 33.525 C 34.546 32.122, 34.246 32.087, 32.641 33.266 M 32.290 44.758 C 26.124 48.968, 21.284 52.617, 21.534 52.867 C 22.305 53.638, 39.177 61, 40.173 61 C 41.937 61, 63.965 45.565, 63.231 44.843 C 62.132 43.762, 45.998 36.992, 44.661 37.052 C 44.023 37.080, 38.455 40.548, 32.290 44.758 M 126.246 39.154 C 122.895 42.505, 125.979 46.284, 131.680 45.815 C 135.319 45.515, 135.500 45.334, 135.500 42 C 135.500 38.632, 135.349 38.489, 131.496 38.204 C 129.247 38.039, 126.945 38.455, 126.246 39.154" stroke="none" fill="#173442" fill-rule="evenodd"/></svg>