<svg xmlns="http://www.w3.org/2000/svg" width="122" height="61" viewBox="0 0 122 61" version="1.1"><path d="M 89.192 11.075 C 89.389 11.666, 89.977 12.150, 90.500 12.150 C 91.023 12.150, 91.611 11.666, 91.808 11.075 C 92.005 10.484, 91.417 10, 90.500 10 C 89.583 10, 88.995 10.484, 89.192 11.075 M 5 23.500 C 5 31.167, 5.387 36, 6 36 C 6.613 36, 7 31.167, 7 23.500 C 7 15.833, 6.613 11, 6 11 C 5.387 11, 5 15.833, 5 23.500 M 14 26.500 C 14 32.167, 14.404 36, 15 36 C 15.589 36, 16 32.483, 16 27.448 C 16 18.895, 16 18.895, 21.250 19.198 C 26.500 19.500, 26.500 19.500, 26.790 27.750 C 27.175 38.685, 29 38.433, 29 27.445 C 29 18.890, 29 18.890, 33.750 19.195 C 38.500 19.500, 38.500 19.500, 38.790 27.750 C 39.026 34.446, 39.376 36, 40.646 36 C 41.964 36, 42.155 34.759, 41.855 28.153 C 41.350 17.015, 41.329 17, 26.378 17 C 14 17, 14 17, 14 26.500 M 49 18 C 49 18.550, 51.009 19, 53.465 19 C 56.962 19, 58.171 19.450, 59.042 21.078 C 60.922 24.592, 59.546 26, 54.231 26 C 48.777 26, 47 27.229, 47 31 C 47 34.974, 48.785 36, 55.700 36 C 62 36, 62 36, 62 28.723 C 62 19.009, 60.619 17, 53.943 17 C 51.224 17, 49 17.450, 49 18 M 69.750 18.080 C 68.335 18.904, 68 20.503, 68 26.427 C 68 31.147, 68.454 34.132, 69.275 34.814 C 69.977 35.396, 72.789 36.013, 75.525 36.186 C 80.081 36.474, 80.500 36.710, 80.500 39 C 80.500 41.342, 80.137 41.519, 74.750 41.800 C 71.588 41.965, 69 42.527, 69 43.050 C 69 44.436, 80.386 44.214, 81.800 42.800 C 82.603 41.997, 83 37.533, 83 29.300 C 83 17, 83 17, 77.250 17.030 C 74.088 17.047, 70.713 17.519, 69.750 18.080 M 90 26.500 C 90 32.167, 90.404 36, 91 36 C 91.596 36, 92 32.167, 92 26.500 C 92 20.833, 91.596 17, 91 17 C 90.404 17, 90 20.833, 90 26.500 M 98 26.500 C 98 32.167, 98.404 36, 99 36 C 99.588 36, 100 32.500, 100 27.500 C 100 19, 100 19, 104.800 19 C 107.440 19, 110.140 19.540, 110.800 20.200 C 111.514 20.914, 112 24.356, 112 28.700 C 112 32.900, 112.425 36, 113 36 C 113.582 36, 114 32.718, 114 28.155 C 114 18.208, 112.936 17, 104.171 17 C 98 17, 98 17, 98 26.500 M 70.667 19.667 C 69.501 20.832, 69.943 32.543, 71.200 33.800 C 71.860 34.460, 74.335 35, 76.700 35 C 81 35, 81 35, 81 27 C 81 19, 81 19, 76.167 19 C 73.508 19, 71.033 19.300, 70.667 19.667 M 50.246 28.154 C 46.895 31.505, 49.979 35.284, 55.680 34.815 C 59.319 34.515, 59.500 34.334, 59.500 31 C 59.500 27.632, 59.349 27.489, 55.496 27.204 C 53.247 27.039, 50.945 27.455, 50.246 28.154" stroke="none" fill="#f1ba6e" fill-rule="evenodd"/><path d="M 0 30.508 C 0 61.015, 0 61.015, 61.250 60.758 C 122.500 60.500, 122.500 60.500, 122.765 30.250 C 123.029 0, 123.029 0, 61.515 0 C 0 0, 0 0, 0 30.508 M 0.444 31 C 0.444 47.775, 0.581 54.637, 0.748 46.250 C 0.915 37.862, 0.915 24.137, 0.748 15.750 C 0.581 7.362, 0.444 14.225, 0.444 31 M 89.192 11.075 C 89.389 11.666, 89.977 12.150, 90.500 12.150 C 91.023 12.150, 91.611 11.666, 91.808 11.075 C 92.005 10.484, 91.417 10, 90.500 10 C 89.583 10, 88.995 10.484, 89.192 11.075 M 5 23.500 C 5 31.167, 5.387 36, 6 36 C 6.613 36, 7 31.167, 7 23.500 C 7 15.833, 6.613 11, 6 11 C 5.387 11, 5 15.833, 5 23.500 M 14 26.500 C 14 32.167, 14.404 36, 15 36 C 15.589 36, 16 32.483, 16 27.448 C 16 18.895, 16 18.895, 21.250 19.198 C 26.500 19.500, 26.500 19.500, 26.790 27.750 C 27.175 38.685, 29 38.433, 29 27.445 C 29 18.890, 29 18.890, 33.750 19.195 C 38.500 19.500, 38.500 19.500, 38.790 27.750 C 39.026 34.446, 39.376 36, 40.646 36 C 41.964 36, 42.155 34.759, 41.855 28.153 C 41.350 17.015, 41.329 17, 26.378 17 C 14 17, 14 17, 14 26.500 M 49 18 C 49 18.550, 51.009 19, 53.465 19 C 56.962 19, 58.171 19.450, 59.042 21.078 C 60.922 24.592, 59.546 26, 54.231 26 C 48.777 26, 47 27.229, 47 31 C 47 34.974, 48.785 36, 55.700 36 C 62 36, 62 36, 62 28.723 C 62 19.009, 60.619 17, 53.943 17 C 51.224 17, 49 17.450, 49 18 M 69.750 18.080 C 68.335 18.904, 68 20.503, 68 26.427 C 68 31.147, 68.454 34.132, 69.275 34.814 C 69.977 35.396, 72.789 36.013, 75.525 36.186 C 80.081 36.474, 80.500 36.710, 80.500 39 C 80.500 41.342, 80.137 41.519, 74.750 41.800 C 71.588 41.965, 69 42.527, 69 43.050 C 69 44.436, 80.386 44.214, 81.800 42.800 C 82.603 41.997, 83 37.533, 83 29.300 C 83 17, 83 17, 77.250 17.030 C 74.088 17.047, 70.713 17.519, 69.750 18.080 M 90 26.500 C 90 32.167, 90.404 36, 91 36 C 91.596 36, 92 32.167, 92 26.500 C 92 20.833, 91.596 17, 91 17 C 90.404 17, 90 20.833, 90 26.500 M 98 26.500 C 98 32.167, 98.404 36, 99 36 C 99.588 36, 100 32.500, 100 27.500 C 100 19, 100 19, 104.800 19 C 107.440 19, 110.140 19.540, 110.800 20.200 C 111.514 20.914, 112 24.356, 112 28.700 C 112 32.900, 112.425 36, 113 36 C 113.582 36, 114 32.718, 114 28.155 C 114 18.208, 112.936 17, 104.171 17 C 98 17, 98 17, 98 26.500 M 70.667 19.667 C 69.501 20.832, 69.943 32.543, 71.200 33.800 C 71.860 34.460, 74.335 35, 76.700 35 C 81 35, 81 35, 81 27 C 81 19, 81 19, 76.167 19 C 73.508 19, 71.033 19.300, 70.667 19.667 M 50.246 28.154 C 46.895 31.505, 49.979 35.284, 55.680 34.815 C 59.319 34.515, 59.500 34.334, 59.500 31 C 59.500 27.632, 59.349 27.489, 55.496 27.204 C 53.247 27.039, 50.945 27.455, 50.246 28.154" stroke="none" fill="#163240" fill-rule="evenodd"/></svg>